<svg xmlns="http://www.w3.org/2000/svg" fill="none" viewBox="0 0 24 24" id="Chat--Streamline-Outlined-Material" height="24" width="24">
  <desc>
    Chat Streamline Icon: https://streamlinehq.com
  </desc>
  <path fill="currentColor" d="M6 14.025h7.825v-1.5H6v1.5Zm0 -3.25h12v-1.5H6v1.5Zm0 -3.25h12v-1.5H6v1.5ZM2 22V3.5c0 -0.4 0.15 -0.75 0.45 -1.05C2.75 2.15 3.1 2 3.5 2h17c0.4 0 0.75 0.15 1.05 0.45 0.3 0.3 0.45 0.65 0.45 1.05v13c0 0.4 -0.15 0.75 -0.45 1.05 -0.3 0.3 -0.65 0.45 -1.05 0.45H6l-4 4Zm3.35 -5.5H20.5V3.5H3.5v15l1.85 -2Z" stroke-width="0.5"></path>
</svg>