<svg xmlns="http://www.w3.org/2000/svg" fill="none" viewBox="0 0 24 24" id="Request-Quote--Streamline-Outlined-Material" height="24" width="24">
  <desc>
    Request Quote Streamline Icon: https://streamlinehq.com
  </desc>
  <path fill="currentColor" d="M11.25 18.975h1.5v-1h1.5c0.2125 0 0.39065 -0.0719 0.5345 -0.21575 0.14365 -0.14365 0.2155 -0.32175 0.2155 -0.53425v-3.25c0 -0.2125 -0.07185 -0.39065 -0.2155 -0.5345 -0.14385 -0.14365 -0.322 -0.2155 -0.5345 -0.2155H10.5v-1.75h4.5v-1.5h-2.25v-1h-1.5v1h-1.5c-0.2125 0 -0.3906 0.07185 -0.53425 0.2155 -0.14385 0.14385 -0.21575 0.322 -0.21575 0.5345v3.25c0 0.2125 0.0719 0.3906 0.21575 0.53425 0.14365 0.14385 0.32175 0.21575 0.53425 0.21575H13.5v1.75h-4.5v1.5h2.25v1ZM5.5 22c-0.4 0 -0.75 -0.15 -1.05 -0.45 -0.3 -0.3 -0.45 -0.65 -0.45 -1.05V3.5c0 -0.4 0.15 -0.75 0.45 -1.05 0.3 -0.3 0.65 -0.45 1.05 -0.45h9.025L20 7.475V20.5c0 0.4 -0.15 0.75 -0.45 1.05 -0.3 0.3 -0.65 0.45 -1.05 0.45H5.5Zm7.775 -14.525V3.5H5.5v17h13V7.475H13.275Z" stroke-width="0.5"></path>
</svg>