<svg xmlns="http://www.w3.org/2000/svg" fill="none" viewBox="0 0 24 24" id="Warning--Streamline-Outlined-Material" height="24" width="24">
  <desc>
    Warning Streamline Icon: https://streamlinehq.com
  </desc>
  <path fill="currentColor" d="M1 21 12 2l11 19H1Zm2.6 -1.5h16.8L12 5 3.6 19.5Zm8.5045 -1.425c0.21365 0 0.39135 -0.07235 0.533 -0.217 0.14165 -0.1445 0.2125 -0.32365 0.2125 -0.5375 0 -0.21365 -0.07235 -0.39135 -0.217 -0.533 -0.1445 -0.14165 -0.32365 -0.2125 -0.5375 -0.2125 -0.21365 0 -0.39135 0.07235 -0.533 0.217 -0.14165 0.1445 -0.2125 0.32365 -0.2125 0.5375 0 0.21365 0.07235 0.39135 0.217 0.533 0.1445 0.14165 0.32365 0.2125 0.5375 0.2125ZM11.35 15.3h1.5V9.7h-1.5v5.6Z" stroke-width="0.5"></path>
</svg>