<svg xmlns="http://www.w3.org/2000/svg" fill="none" viewBox="0 0 24 24" id="Location-City--Streamline-Outlined-Material" height="24" width="24">
  <desc>
    Location City Streamline Icon: https://streamlinehq.com
  </desc>
  <path fill="currentColor" d="M3 21V7.05h6.175V4.75L12 2l2.825 2.75v6.45H21V21H3Zm1.5 -1.5h2.65v-2.65H4.5V19.5Zm0 -4.15h2.65v-2.65H4.5v2.65Zm0 -4.15h2.65v-2.65H4.5v2.65ZM10.675 19.5h2.65v-2.65h-2.65V19.5Zm0 -4.15h2.65v-2.65h-2.65v2.65Zm0 -4.15h2.65v-2.65h-2.65v2.65Zm0 -4.15h2.65V4.4h-2.65v2.65ZM16.85 19.5H19.5v-2.65h-2.65V19.5Zm0 -4.15H19.5v-2.65h-2.65v2.65Z" stroke-width="0.5"></path>
</svg>